<svg xmlns="http://www.w3.org/2000/svg" viewBox="0 0 512 512" width="512" height="512" shape-rendering="crispEdges">
  <!-- pixel-art proposition: 16x16 grid, 32px cells, flat palette, transparent bg -->
  <rect x="256" y="32" width="192" height="32" fill="#f1f5f9"/>
  <rect x="256" y="64" width="32" height="32" fill="#cbd5e1"/>
  <rect x="288" y="64" width="32" height="32" fill="#0b1220"/>
  <rect x="320" y="64" width="32" height="32" fill="#cbd5e1"/>
  <rect x="352" y="64" width="32" height="32" fill="#0b1220"/>
  <rect x="384" y="64" width="32" height="32" fill="#cbd5e1"/>
  <rect x="416" y="64" width="32" height="32" fill="#0b1220"/>
  <rect x="448" y="64" width="32" height="32" fill="#cbd5e1"/>
  <rect x="256" y="96" width="224" height="32" fill="#cbd5e1"/>
  <rect x="256" y="128" width="224" height="32" fill="#7c8b9a"/>
  <rect x="224" y="160" width="32" height="32" fill="#7c8b9a"/>
  <rect x="160" y="192" width="64" height="32" fill="#ffd93b"/>
  <rect x="224" y="192" width="32" height="32" fill="#f0a92e"/>
  <rect x="128" y="224" width="64" height="32" fill="#ffd93b"/>
  <rect x="192" y="224" width="32" height="32" fill="#f0a92e"/>
  <rect x="96" y="256" width="32" height="32" fill="#ffd93b"/>
  <rect x="128" y="256" width="32" height="32" fill="#333333"/>
  <rect x="160" y="256" width="32" height="32" fill="#f0a92e"/>
  <rect x="64" y="288" width="32" height="32" fill="#ffd93b"/>
  <rect x="96" y="288" width="32" height="32" fill="#333333"/>
  <rect x="128" y="288" width="32" height="32" fill="#f0a92e"/>
  <rect x="32" y="320" width="64" height="32" fill="#ffd93b"/>
  <rect x="96" y="320" width="32" height="32" fill="#f0a92e"/>
  <rect x="0" y="352" width="64" height="32" fill="#ffd93b"/>
  <rect x="64" y="352" width="32" height="32" fill="#f0a92e"/>
</svg>
