<svg xmlns="http://www.w3.org/2000/svg" viewBox="0 0 512 512" width="512" height="512" shape-rendering="crispEdges">
  <!-- pixel-art proposition: 16x16 grid, 32px cells, flat palette, transparent bg -->
  <rect x="448" y="0" width="32" height="32" fill="#f1f5f9"/>
  <rect x="416" y="32" width="32" height="32" fill="#cbd5e1"/>
  <rect x="384" y="64" width="32" height="32" fill="#cbd5e1"/>
  <rect x="96" y="96" width="192" height="32" fill="#f1f5f9"/>
  <rect x="352" y="96" width="32" height="32" fill="#cbd5e1"/>
  <rect x="416" y="96" width="32" height="32" fill="#ffd93b"/>
  <rect x="96" y="128" width="192" height="32" fill="#f1f5f9"/>
  <rect x="320" y="128" width="32" height="32" fill="#cbd5e1"/>
  <rect x="96" y="160" width="64" height="32" fill="#f1f5f9"/>
  <rect x="96" y="192" width="64" height="32" fill="#f1f5f9"/>
  <rect x="288" y="192" width="32" height="32" fill="#f1f5f9"/>
  <rect x="96" y="224" width="192" height="32" fill="#f1f5f9"/>
  <rect x="96" y="256" width="192" height="32" fill="#f1f5f9"/>
  <rect x="96" y="288" width="64" height="32" fill="#f1f5f9"/>
  <rect x="288" y="288" width="64" height="32" fill="#f1f5f9"/>
  <rect x="96" y="320" width="64" height="32" fill="#f1f5f9"/>
  <rect x="288" y="320" width="64" height="32" fill="#f1f5f9"/>
  <rect x="96" y="352" width="192" height="32" fill="#f1f5f9"/>
  <rect x="96" y="384" width="192" height="32" fill="#f1f5f9"/>
</svg>
