<svg xmlns="http://www.w3.org/2000/svg" viewBox="0 0 512 512" width="512" height="512" shape-rendering="crispEdges">
  <!-- pixel-art proposition: 16x16 grid, 32px cells, flat palette, transparent bg -->
  <rect x="0" y="128" width="224" height="32" fill="#333333"/>
  <rect x="320" y="128" width="192" height="32" fill="#333333"/>
  <rect x="0" y="160" width="32" height="32" fill="#333333"/>
  <rect x="32" y="160" width="160" height="32" fill="#ffffff"/>
  <rect x="192" y="160" width="32" height="32" fill="#333333"/>
  <rect x="320" y="160" width="32" height="32" fill="#333333"/>
  <rect x="352" y="160" width="128" height="32" fill="#ffffff"/>
  <rect x="480" y="160" width="32" height="32" fill="#333333"/>
  <rect x="0" y="192" width="32" height="32" fill="#333333"/>
  <rect x="32" y="192" width="32" height="32" fill="#ffffff"/>
  <rect x="64" y="192" width="96" height="32" fill="#4aa5e8"/>
  <rect x="160" y="192" width="32" height="32" fill="#ffffff"/>
  <rect x="192" y="192" width="32" height="32" fill="#333333"/>
  <rect x="288" y="192" width="32" height="32" fill="#ffd93b"/>
  <rect x="320" y="192" width="32" height="32" fill="#333333"/>
  <rect x="352" y="192" width="32" height="32" fill="#ffffff"/>
  <rect x="384" y="192" width="64" height="32" fill="#2dd4bf"/>
  <rect x="448" y="192" width="32" height="32" fill="#ffffff"/>
  <rect x="480" y="192" width="32" height="32" fill="#333333"/>
  <rect x="0" y="224" width="32" height="32" fill="#333333"/>
  <rect x="32" y="224" width="32" height="32" fill="#ffffff"/>
  <rect x="64" y="224" width="32" height="32" fill="#4aa5e8"/>
  <rect x="96" y="224" width="64" height="32" fill="#ffd93b"/>
  <rect x="160" y="224" width="32" height="32" fill="#ffffff"/>
  <rect x="192" y="224" width="32" height="32" fill="#333333"/>
  <rect x="224" y="224" width="96" height="32" fill="#ffd93b"/>
  <rect x="320" y="224" width="32" height="32" fill="#333333"/>
  <rect x="352" y="224" width="32" height="32" fill="#ffffff"/>
  <rect x="384" y="224" width="64" height="32" fill="#ffd93b"/>
  <rect x="448" y="224" width="32" height="32" fill="#ffffff"/>
  <rect x="480" y="224" width="32" height="32" fill="#333333"/>
  <rect x="0" y="256" width="32" height="32" fill="#333333"/>
  <rect x="32" y="256" width="32" height="32" fill="#ffffff"/>
  <rect x="64" y="256" width="32" height="32" fill="#3c8f38"/>
  <rect x="96" y="256" width="32" height="32" fill="#ffd93b"/>
  <rect x="128" y="256" width="32" height="32" fill="#f0a92e"/>
  <rect x="160" y="256" width="32" height="32" fill="#ffffff"/>
  <rect x="192" y="256" width="32" height="32" fill="#333333"/>
  <rect x="288" y="256" width="32" height="32" fill="#ffd93b"/>
  <rect x="320" y="256" width="32" height="32" fill="#333333"/>
  <rect x="352" y="256" width="32" height="32" fill="#ffffff"/>
  <rect x="384" y="256" width="32" height="32" fill="#ffd93b"/>
  <rect x="416" y="256" width="32" height="32" fill="#f0a92e"/>
  <rect x="448" y="256" width="32" height="32" fill="#ffffff"/>
  <rect x="480" y="256" width="32" height="32" fill="#333333"/>
  <rect x="0" y="288" width="32" height="32" fill="#333333"/>
  <rect x="32" y="288" width="32" height="32" fill="#ffffff"/>
  <rect x="64" y="288" width="96" height="32" fill="#57b544"/>
  <rect x="160" y="288" width="32" height="32" fill="#ffffff"/>
  <rect x="192" y="288" width="32" height="32" fill="#333333"/>
  <rect x="320" y="288" width="32" height="32" fill="#333333"/>
  <rect x="352" y="288" width="32" height="32" fill="#ffffff"/>
  <rect x="384" y="288" width="64" height="32" fill="#cbd5e1"/>
  <rect x="448" y="288" width="32" height="32" fill="#ffffff"/>
  <rect x="480" y="288" width="32" height="32" fill="#333333"/>
  <rect x="0" y="320" width="32" height="32" fill="#333333"/>
  <rect x="32" y="320" width="160" height="32" fill="#ffffff"/>
  <rect x="192" y="320" width="32" height="32" fill="#333333"/>
  <rect x="320" y="320" width="32" height="32" fill="#333333"/>
  <rect x="352" y="320" width="128" height="32" fill="#ffffff"/>
  <rect x="480" y="320" width="32" height="32" fill="#333333"/>
  <rect x="0" y="352" width="224" height="32" fill="#333333"/>
  <rect x="320" y="352" width="192" height="32" fill="#333333"/>
</svg>
